# xmcd
#
# Track frame offsets:
# 150
# 22372
# 40080
# 54622
# 73395
# 92290
# 111115
# 131852
# 158117
# 183400
# 199117
# 218405
# 249835
# 268085
#
# Disc length: 3820 seconds
#
#
# Revision: 0
# Processed by: cddbd v1.4PL0 Copyright (c) Steve Scherf et al.
# Submitted via: FreeRIP 2.52 
#
DISCID=c90eea0e
DTITLE=Leandro and Leonardo - Focus - O Essencial De...
DYEAR=1900
DGENRE=
TTITLE0=Catedral (Catedral Song)
TTITLE1=Um Sonhador
TTITLE2=Cumade E Cumpade
TTITLE3=Deu Medo
TTITLE4=Verde E Amarelo (Inédito)
TTITLE5=Amor Dividido
TTITLE6=Abandonado (Abandonada)
TTITLE7=Canção Do 3º Milénio
TTITLE8=Eu Juro ( I Swear) (Ao Vivo)
TTITLE9=Mexe-Mexe (Ao Vivo)
TTITLE10=Você É Desejo E Eu Sou Paixão
TTITLE11=Festa De Rodeio (Ao Vivo)
TTITLE12=Horizonte Azul (Ao Vivo)
TTITLE13=Doce Mistério (Ao Vivo)
EXTD=
EXTT0=
EXTT1=
EXTT2=
EXTT3=
EXTT4=
EXTT5=
EXTT6=
EXTT7=
EXTT8=
EXTT9=
EXTT10=
EXTT11=
EXTT12=
EXTT13=
PLAYORDER=
